<svg xmlns="http://www.w3.org/2000/svg" xmlns:xlink="http://www.w3.org/1999/xlink" width="589.382" height="280.135" viewBox="0 0 589.382 280.135">
  <defs>
    <radialGradient id="radial-gradient" cx="0.5" cy="0.5" r="0.598" gradientTransform="matrix(0.836, 0.006, -0.004, 0.836, 0.583, -7.392)" gradientUnits="objectBoundingBox">
      <stop offset="0.007" stop-color="#fff"/>
      <stop offset="0.092" stop-color="#a16327"/>
      <stop offset="0.115" stop-color="#955c24"/>
      <stop offset="0.207" stop-color="#6e431a"/>
      <stop offset="0.305" stop-color="#4c2e12"/>
      <stop offset="0.409" stop-color="#301d0b"/>
      <stop offset="0.52" stop-color="#1a1006"/>
      <stop offset="0.643" stop-color="#0b0702"/>
      <stop offset="0.787" stop-color="#020100"/>
      <stop offset="1"/>
    </radialGradient>
    <radialGradient id="radial-gradient-2" cx="0.5" cy="0.5" r="0.598" gradientTransform="matrix(0.836, 0.006, -0.004, 0.836, 0.471, -3.645)" xlink:href="#radial-gradient"/>
  </defs>
  <g id="orquidea-deluxe" transform="translate(-257.983 -607.815)">
    <g id="Group_7" data-name="Group 7">
      <path id="Path_281" data-name="Path 281" d="M337.235,610.653a79.453,79.453,0,0,1,20.3-2.838c10.042,0,18.338,2.838,24.669,8.732,14.845,13.536,16.591,31.436,12.662,50.43-6.331,30.126-27.725,62-49.993,77.935-10.7,7.641-18.337,11.789-26.633,14.191-18.993,5.457-29.254,2.182-39.077-12.663-3.493-5.239-4.148-9.169-4.585-16.809l-.218-6.331L270,719.589c-12.444-10.7-15.5-29.035-7.859-48.028,10.26-25.76,43.224-52.612,75.1-61.126Zm45.409,75.971c5.894-14.627,7.422-20.52,7.858-32.746.437-10.479-1.091-24.014-12.661-33.183a36.157,36.157,0,0,0-23.577-7.859c-28.381,1.31-65.929,24.669-82.3,51.52a54.271,54.271,0,0,0-8.732,26.415c-.655,10.043,1.965,18.121,8.514,25.542,1.31,1.529,2.62,2.621,2.838,2.4a53.74,53.74,0,0,0,1.965-7.422c3.493-16.81,16.155-42.134,30.563-61.126,5.894-7.641,9.824-11.134,12.007-10.916,2.62.219,2.4,1.965-.873,5.677-10.916,12.007-24.014,34.055-31.655,53.485-2.4,6.112-5.894,19.648-5.894,22.7,0,1.311,9.387,3.493,14.626,3.493a16.632,16.632,0,0,0,6.986-1.309c3.493-1.529,5.676-1.092,5.239.873-.218.873-1.527,1.965-3.71,2.838-4.367,1.965-10.916,1.965-18.338.218l-5.24-1.091v4.585a28.134,28.134,0,0,0,3.275,13.971c6.113,10.7,14.408,13.753,27.507,12.007,10.478-1.528,23.14-8.732,35.584-19.43,15.718-13.316,27.506-29.908,36.457-51.52Z" fill="#fff"/>
      <path id="Path_282" data-name="Path 282" d="M440.931,692.3c4.8-1.746,6.986-1.746,6.986.219,0,.654-1.092,1.528-2.838,2.4a34.731,34.731,0,0,1-11.352,2.619c-6.331.438-9.6-1.31-12.226-3.929a7.005,7.005,0,0,0-2.619-1.964c-1.091,0-9.387,8.077-16.81,16.154-3.711,4.147-7.2,7.423-7.859,7.423a3.251,3.251,0,0,1-1.964-.873c-1.31-1.311,1.091-7.2,6.767-16.373,4.8-7.86,6.331-9.169,8.3-7.423,1.091.873,1.091,1.092-.437,3.711-1.747,2.62-1.528,2.62,5.021-2.619,8.078-6.332,9.169-6.55,11.789-2.184,1.746,2.62,2.838,3.93,8.077,3.93a26.607,26.607,0,0,0,8.951-1.529Z" fill="#fff"/>
      <path id="Path_283" data-name="Path 283" d="M500.964,690.554c2.4.436,1.746,2.4-1.746,5.239-4.366,3.493-20.958,13.316-30.563,17.9-4.148,1.965-7.641,3.711-7.86,3.711s.437,1.31,1.529,2.838c3.493,5.239,2.838,13.754-1.529,21.831-3.274,5.9-10.042,11.571-14.189,11.352-3.711-.218-5.021-3.056-5.021-6.986.218-6.986,6.331-20.739,14.626-33.182,1.747-2.62,4.148-6.113,5.24-7.86l1.965-3.056-5.458,4.585c-6.768,5.458-10.916,7.2-13.754,5.894-1.746-.655-1.965-1.092-2.183-3.712-.218-2.4.218-3.928,2.183-7.64,2.62-4.8,7.86-10.26,11.134-11.788,4.148-1.965,7.859-.873,10.26,2.838.655,1.091,1.092.873,3.93-1.31,2.619-1.965,4.148-2.839,5.239-2.839a3.092,3.092,0,0,1,1.31.438c1.529,1.09,1.31,1.527-4.584,9.605-6.113,8.295-8.951,12.443-8.3,12.443,2.4,0,27.07-13.971,32.309-18.337,1.965-1.748,3.93-2.838,4.585-2.621ZM450.1,748.405c6.549-4.366,11.788-17.246,9.605-24.013q-.982-3.276-1.965-3.276c-.873,0-1.965,1.529-3.711,4.8-3.929,7.422-6.986,15.935-7.422,20.3-.437,3.929,0,4.148,3.274,1.965Zm7.859-46.936c4.8-4.148,5.021-4.366,4.366-6.331a3.935,3.935,0,0,0-1.965-2.183c-3.056,0-10.26,7.423-12.443,13.1-1.747,4.366-1.31,4.584,2.837,1.746a61.266,61.266,0,0,0,7.641-6.112Z" fill="#fff"/>
      <path id="Path_284" data-name="Path 284" d="M559.47,692.082c.873,1.528,0,2.619-8.514,8.3-11.788,8.077-22.7,13.316-28.162,13.1-6.331-.218-7.859-4.584-7.422-8.514l.437-4.366-5.9,4.8c-9.605,7.641-14.626,8.952-17.9,5.022-1.965-2.4-.437-8.078,3.929-15.5,3.712-6.112,5.24-7.2,7.423-5.458,1.092.873.873,1.309-1.746,5.676-1.529,2.62-3.275,5.894-3.93,7.423-1.31,3.056-1.528,6.548-.437,6.548s7.423-4.584,16.155-11.57c7.859-6.33,9.824-7.2,10.915-4.8.219.437-.654,3.712-1.965,6.987a37.976,37.976,0,0,0-2.4,7.64c0,5.676,11.789,1.092,31-12.007,1.747-1.309,3.493-2.4,4.8-3.274,1.528-1.092,3.274-1.528,3.93-.219Z" fill="#fff"/>
      <path id="Path_285" data-name="Path 285" d="M588.506,695.356c6.986-4.585,9.824-5.458,10.261-3.274,0,.437-1.747,1.746-4.367,3.711a178.6,178.6,0,0,1-20.739,12.226c-9.169,4.584-12.661,5.675-17.246,5.675-3.056,0-4.148-.436-6.113-1.965-1.746-1.309-2.4-2.4-2.4-4.147,0-2.839,2.4-8.732,5.24-12.881,3.056-4.584,4.8-6.549,6.33-6.549a3.019,3.019,0,0,1,1.965,1.092c.874.873.437,1.965-2.838,7.2-6.113,9.823-6.549,13.535-1.31,13.535,4.8,0,17.247-5.458,31.437-14.627Zm-23.359-18.993c-5.894,4.149-9.823,5.458-9.387,2.838.219-1.527,10.042-8.731,12.225-8.95,4.148-.437,3.057,1.746-3.056,6.112Z" fill="#fff"/>
      <path id="Path_286" data-name="Path 286" d="M659.673,690.99c2.62.873.873,3.057-8.077,10.042-17.028,13.1-24.233,16.81-31,15.719a11.543,11.543,0,0,1-3.493-1.965c-1.747-1.528-1.965-2.183-1.965-7.2a29.967,29.967,0,0,1,2.183-11.353c3.275-8.732,3.275-8.732-1.091-3.274-6.549,8.3-13.753,15.5-17.465,17.683-6.331,3.493-12.007,2.183-12.007-2.838,0-5.458,6.331-15.281,11.789-18.338,3.711-2.183,6.549-1.965,9.824.655l2.619,2.183,4.585-6.331c4.366-5.894,10.479-14.845,22.7-33.4,4.584-6.986,6.549-9.387,8.077-9.387a3.1,3.1,0,0,1,1.31.436c1.747,1.092,1.528,1.965-1.528,6.55-12.444,18.556-27.725,54.14-25.761,60.253,1.311,4.366,9.388,1.309,22.268-8.3,13.535-10.042,16.373-11.789,17.683-11.353Zm-56.978,10.7c5.021-5.24,5.021-5.459,3.93-7.205s-1.965-2.4-3.057-2.4a6.733,6.733,0,0,0-1.747.437c-3.711,1.746-11.133,13.535-10.042,15.936.655,1.528,5.021-1.31,10.7-6.986Z" fill="#fff"/>
      <path id="Path_287" data-name="Path 287" d="M695.257,695.574c7.859-6.112,8.732-4.365,8.514-3.055,0,.654-2.183,3.274-7.2,7.2-16.155,12.662-27.289,17.465-36.894,15.936-7.422-1.309-11.352-5.239-10.7-10.7.873-7.641,10.26-15.937,17.028-15.937a5.814,5.814,0,0,1,2.62.656c3.711,1.746,3.492,5.675-.874,9.386-2.4,2.184-5.021,2.621-7.641,2.838-4.366.219-4.8-.436-5.457.874a7.547,7.547,0,0,0-.437,3.929q.328,5.239,8.514,5.239c7.641,0,17.465-5.02,32.31-16.591Zm-34.929-.654c-1.528,1.309-1.747,1.965-1.092,2.4,1.31.656,1.31.656,4.148-.655,2.183-1.092,3.93-3.493,3.056-4.147H666c-1.092,0-3.711,1.309-5.9,3.055Z" fill="#fff"/>
      <path id="Path_288" data-name="Path 288" d="M750.7,692.955c4.148-2.838,5.239-2.62,5.239-.219,0,.437-.873,1.529-2.4,3.057a108.451,108.451,0,0,1-17.9,13.753c-9.605,5.458-15.063,6.113-19.429,2.62-2.4-1.965-2.62-2.62-2.62-5.9v-3.71l-5.239,3.929c-10.042,7.641-17.246,10.261-21.176,7.86-5.458-3.276,1.965-16.592,12.662-22.7a17.279,17.279,0,0,1,8.3-2.621,7.083,7.083,0,0,1,6.767,3.93l1.092,2.183,2.183-1.746c2.4-1.965,3.274-2.183,4.584-.873.873.873.655,1.746-1.31,5.239-2.838,5.239-3.711,9.169-2.4,11.134.873,1.091,1.528,1.309,4.148,1.091,5.021-.437,11.134-3.712,21.176-11.789,2.837-2.182,5.021-3.929,6.767-5.021Zm-43.88,9.606c5.021-3.711,5.239-3.93,4.584-6.113a6.463,6.463,0,0,0-1.528-2.838,1.669,1.669,0,0,0-1.091-.437c-4.8-.218-16.81,10.043-18.338,16.373-.655,2.839.655,2.62,6.331-.654,2.4-1.529,6.767-4.367,9.605-6.55Z" fill="#fff"/>
    </g>
    <g id="Group_8" data-name="Group 8">
      <path id="Path_289" data-name="Path 289" d="M442.8,773.384c-2.4-.438-2.4-5.022.218-9.824a63.914,63.914,0,0,1,12.444-15.937c13.1-11.352,39.95-22.485,64.182-26.415,10.7-1.747,26.852-1.747,35.8,0,19.648,3.93,32.965,13.535,39.3,28.161,1.965,4.585,2.838,16.155,1.528,22.05-5.458,25.542-34.056,58.069-70.732,80.555-13.753,8.514-25.1,13.535-36.894,16.591-8.077,2.183-20.52,2.4-27.07.437-12.225-3.493-17.465-13.1-13.535-24.669,4.8-14.626,17.683-26.415,37.986-34.929,5.021-2.183,6.549-3.056,6.985-4.366.656-1.747,10.261-23.141,14.409-31.873a308.089,308.089,0,0,1,18.993-31.436c3.929-5.458,5.021-6.549,6.33-6.332,2.839.437,2.4,2.839-1.528,8.515a315.571,315.571,0,0,0-17.9,29.253c-4.148,8.077-13.535,27.943-14.19,30.345-.436,1.528-.436,1.528,1.31,1.092,10.7-2.4,25.323-1.529,27.288,1.528s-.218,4.584-3.492,2.619c-2.839-1.746-15.5-1.746-22.7,0a25.263,25.263,0,0,0-5.458,1.747c-1.528,2.183-5.24,13.972-5.458,17.464-.218,4.585-1.528,6.113-3.711,4.585-1.747-1.311-1.528-6.55.873-13.535,1.091-3.275,1.965-6.113,1.747-6.331-.437-.437-11.134,5.021-16.373,8.3-12.226,7.858-20.958,20.52-20.958,30.344,0,9.387,7.422,14.409,20.958,14.409,18.774,0,45.844-13.1,72.914-35.367,23.359-19.211,39.514-40.386,44.535-58.506,1.528-5.458,1.528-15.718,0-20.3-4.366-13.754-18.12-23.8-36.894-27.071-14.408-2.4-28.6-1.309-46.718,3.494-23.359,6.331-40.387,14.844-50.866,25.759-4.584,4.585-10.042,13.318-10.042,15.937,0,2.183-1.091,3.274-2.838,3.057Z" fill="#fff"/>
      <path id="Path_290" data-name="Path 290" d="M636,805.692c7.859-6.112,8.732-4.365,8.514-3.055,0,.654-2.183,3.274-7.2,7.2-16.155,12.662-27.289,17.465-36.894,15.936-7.423-1.309-11.352-5.239-10.7-10.7.874-7.641,10.261-15.936,17.029-15.936a5.805,5.805,0,0,1,2.619.655c3.711,1.746,3.493,5.676-.873,9.387-2.4,2.183-5.021,2.62-7.641,2.837-4.366.219-4.8-.436-5.457.874a7.539,7.539,0,0,0-.437,3.929q.327,5.239,8.514,5.24c7.64,0,17.465-5.021,32.309-16.591Zm-34.93-.654c-1.528,1.31-1.746,1.965-1.091,2.4,1.31.655,1.31.655,4.148-.655,2.183-1.092,3.929-3.493,3.056-4.147h-.436c-1.092,0-3.712,1.309-5.9,3.055Z" fill="#fff"/>
      <path id="Path_291" data-name="Path 291" d="M689.263,801.108a1.874,1.874,0,0,1,1.528,1.31c0,.436-1.31,1.747-3.274,3.712-5.676,5.239-15.937,13.1-21.176,16.154-10.042,5.676-18.338,7.641-23.8,5.9-2.183-.656-4.584-3.057-5.676-5.458-2.619-6.549,1.31-18.992,11.352-35.584,10.261-17.029,25.979-32.746,35.8-35.8a16.206,16.206,0,0,1,3.275-.654,4.592,4.592,0,0,1,2.4.873c10.26,6.331-6.986,29.908-32.528,44.534a57.857,57.857,0,0,1-7.859,3.712c-2.62.873-2.838,1.309-5.021,7.2-2.838,7.858-3.275,14.626-1.092,16.591,3.275,3.056,11.789,1.092,21.613-5.021,2.4-1.528,10.042-7.2,14.845-10.7,3.274-2.4,8.95-6.986,9.6-6.986Zm-34.274-16.591c-3.712,5.676-6.113,10.26-5.239,10.26.436,0,3.929-1.964,7.64-4.366a123.693,123.693,0,0,0,21.176-17.465c5.894-6.33,10.261-14.844,9.169-17.682-.218-.655-.437-.873-.873-.873a7.1,7.1,0,0,0-2.183.655c-7.2,3.056-21.613,17.464-29.69,29.689Z" fill="#fff"/>
      <path id="Path_292" data-name="Path 292" d="M747.331,802.2c.873,1.529,0,2.619-8.514,8.3-11.789,8.077-22.7,13.317-28.162,13.1-6.331-.218-7.859-4.584-7.423-8.514l.437-4.366-5.894,4.8c-9.606,7.64-14.627,8.951-17.9,5.021-1.965-2.4-.437-8.078,3.929-15.5,3.712-6.112,5.24-7.2,7.423-5.458,1.091.873.873,1.31-1.746,5.676-1.529,2.62-3.275,5.894-3.93,7.423-1.31,3.056-1.528,6.549-.437,6.549s7.423-4.584,16.155-11.571c7.859-6.33,9.824-7.2,10.915-4.8.218.437-.655,3.712-1.964,6.987a37.933,37.933,0,0,0-2.4,7.64c0,5.676,11.789,1.092,31-12.006,1.747-1.31,3.493-2.4,4.8-3.275,1.527-1.092,3.274-1.528,3.929-.219Z" fill="#fff"/>
      <path id="Path_293" data-name="Path 293" d="M797.978,804.165q-1.637,1.31-3.93,3.274c-7.422,6.549-16.373,12.663-25.542,14.627-5.021,1.091-10.915-.655-16.154-4.585l-2.838-2.4c-.873-.655-1.092-.655-1.529-.219l-1.527,1.529c-7.641,7.423-11.134,9.387-12.226,6.986-.437-.873,5.021-6.768,8.951-9.6,3.056-2.184,3.275-3.057,1.528-6.987a20.978,20.978,0,0,1-1.747-6.549c-.218-2.62,0-3.056,1.529-3.274s1.965.218,3.274,4.147c.874,2.4,1.528,4.584,1.747,5.022.436,1.309,1.092.873,7.2-4.149,4.366-3.493,6.767-5.02,7.859-4.8,3.493.436,2.183,2.62-5.24,8.732l-6.767,5.676c-.655.436-.437.436,0,.873l1.528,1.528a14.752,14.752,0,0,0,10.261,4.8c9.824,0,18.774-7.422,22.922-10.7,8.95-6.986,10.915-8.295,11.788-7.641C800.379,801.327,799.069,803.073,797.978,804.165Z" fill="#fff"/>
      <path id="Path_294" data-name="Path 294" d="M832.471,805.692c7.86-6.112,8.733-4.365,8.514-3.055,0,.654-2.183,3.274-7.2,7.2-16.155,12.662-27.288,17.465-36.894,15.936-7.422-1.309-11.352-5.239-10.7-10.7.874-7.641,10.261-15.936,17.028-15.936a5.812,5.812,0,0,1,2.62.655c3.711,1.746,3.493,5.676-.874,9.387-2.4,2.183-5.021,2.62-7.64,2.837-4.366.219-4.8-.436-5.458.874a7.55,7.55,0,0,0-.436,3.929q.327,5.239,8.513,5.24c7.641,0,17.465-5.021,32.31-16.591Zm-34.929-.654c-1.528,1.31-1.747,1.965-1.091,2.4,1.309.655,1.309.655,4.147-.655,2.183-1.092,3.93-3.493,3.057-4.147h-.437c-1.092,0-3.711,1.309-5.894,3.055Z" fill="#fff"/>
    </g>
    <path id="Path_295" data-name="Path 295" d="M847.364,810.99c-.14,23.246-22.8,41.959-50.614,41.779-27.813-.16-50.244-19.153-50.1-42.4s22.807-41.947,50.617-41.779S847.51,787.737,847.364,810.99Z" opacity="0.32" fill="url(#radial-gradient)" style="mix-blend-mode: screen;isolation: isolate"/>
    <path id="Path_296" data-name="Path 296" d="M596.782,804.107c-.28,46.648-45.76,84.2-101.567,83.84-55.813-.323-100.826-38.436-100.54-85.091s45.768-84.177,101.575-83.84S597.076,757.444,596.782,804.107Z" opacity="0.32" fill="url(#radial-gradient-2)" style="mix-blend-mode: screen;isolation: isolate"/>
  </g>
</svg>
